# xmcd CD database file
#
# Track frame offsets:
#	150
#	11562
#	22957
#	33800
#	44870
#	55957
#	66492
#	76747
#	89767
#	100102
#
# Disc length: 1471 seconds
#
# Revision: 1
# Processed by: cddbd v1.4PL0 Copyright (c) Steve Scherf et al.
# Submitted via: CDex 1.50
#
DISCID=7d05bd0a
DTITLE=Patsy Cline - Sincerely Yours
DYEAR=1998
DGENRE=Country
TTITLE0=Walkin' After Midnight
TTITLE1=I've Loved and Lost Again
TTITLE2=I Can't Forget You
TTITLE3=Just Out of Reach
TTITLE4=Hungry For Love
TTITLE5=I Can See an Angel
TTITLE6=Walking Dream
TTITLE7=If I Could See the World
TTITLE8=Hidin' Out
TTITLE9=Too Many Secrets
EXTD=YEAR: 1998
EXTT0=
EXTT1=
EXTT2=
EXTT3=
EXTT4=
EXTT5=
EXTT6=
EXTT7=
EXTT8=
EXTT9=
PLAYORDER=
